<svg version="1.1" id="Layer_1" xmlns="http://www.w3.org/2000/svg" xmlns:xlink="http://www.w3.org/1999/xlink" x="0px" y="0px"
	 width="100%" viewBox="0 0 500 500" enable-background="new 0 0 500 500" xml:space="preserve">
<path fill="transparent" opacity="1.000000" stroke="none" 
	d="
M501.000000,196.000000 
	C501.000000,297.999969 501.000000,399.499969 501.000000,500.999939 
	C334.333405,500.999969 167.666794,500.999969 1.000144,501.000000 
	C1.000096,334.333435 1.000096,167.666870 1.000048,1.000233 
	C167.666519,1.000156 334.333038,1.000156 500.999786,1.000078 
	C501.000000,65.833336 501.000000,130.666672 501.000000,196.000000 
M346.978394,277.717346 
	C346.810760,278.840179 346.733459,279.985413 346.461182,281.082275 
	C344.386993,289.437592 349.275726,305.458954 355.760284,309.852539 
	C362.504944,314.422424 369.528137,318.597565 376.557831,322.726990 
	C392.268616,331.955841 408.109497,340.963562 423.803253,350.220978 
	C440.036316,359.796478 460.529694,354.463287 468.564453,337.960388 
	C474.402954,325.968353 477.802673,312.553497 480.675537,299.419922 
	C483.495697,286.527130 484.759705,273.225647 485.776398,260.031830 
	C486.407837,251.838150 485.797241,243.455826 484.869354,235.257172 
	C483.546417,223.567413 482.244720,211.767624 479.465851,200.372879 
	C473.822205,177.230972 465.192963,155.130600 451.880249,135.208923 
	C444.543152,124.229378 437.205994,113.067711 428.435120,103.271881 
	C415.825653,89.188873 401.779358,76.516968 385.725250,66.132935 
	C364.530853,52.424099 342.036652,41.923901 317.664673,35.265965 
	C301.644592,30.889608 285.305450,28.869549 268.838501,28.212727 
	C257.409729,27.756866 245.837036,27.925337 234.489624,29.222824 
	C222.227325,30.624920 209.775970,32.500694 198.089005,36.279118 
	C182.828445,41.212879 167.735458,47.248337 153.505249,54.615555 
	C140.249771,61.478149 127.418335,69.720299 115.836533,79.124092 
	C98.348587,93.323341 83.234917,109.940147 71.064148,129.225143 
	C61.291435,144.710358 53.244331,160.879807 46.931778,178.005814 
	C38.215408,201.653366 34.799881,226.231476 34.131367,251.254639 
	C33.946461,258.175812 34.492241,265.140320 35.088112,272.051727 
	C35.665203,278.745331 36.223061,285.512970 37.703423,292.040833 
	C40.545925,304.575317 43.891525,317.002502 47.286873,329.403412 
	C53.679741,352.752106 78.002480,360.720184 95.392433,351.077637 
	C105.192764,345.643494 114.713135,339.706268 124.398186,334.061859 
	C134.791916,328.004456 145.042908,321.664429 155.698700,316.104126 
	C168.375259,309.489349 176.495514,294.768005 173.005005,281.063629 
	C171.939926,276.881958 169.797607,272.921600 169.122040,268.703979 
	C167.312973,257.410004 167.502106,246.116425 169.914612,234.827988 
	C173.222031,219.352142 179.863953,205.461090 190.065048,193.548431 
	C202.388321,179.157516 217.881073,169.456482 236.272552,164.203461 
	C256.932007,158.302628 276.845154,160.310455 296.276672,168.692596 
	C313.274475,176.024872 326.557617,187.685852 336.889191,203.168167 
	C346.077637,216.937485 350.392792,232.076721 351.973846,248.197372 
	C352.947876,258.128448 351.415649,267.775665 346.978394,277.717346 
z"/>
<path fill="#F55105" opacity="1.000000" stroke="none" 
	d="
M347.008240,277.288055 
	C351.415649,267.775665 352.947876,258.128448 351.973846,248.197372 
	C350.392792,232.076721 346.077637,216.937485 336.889191,203.168167 
	C326.557617,187.685852 313.274475,176.024872 296.276672,168.692596 
	C276.845154,160.310455 256.932007,158.302628 236.272552,164.203461 
	C217.881073,169.456482 202.388321,179.157516 190.065048,193.548431 
	C179.863953,205.461090 173.222031,219.352142 169.914612,234.827988 
	C167.502106,246.116425 167.312973,257.410004 169.122040,268.703979 
	C169.797607,272.921600 171.939926,276.881958 173.005005,281.063629 
	C176.495514,294.768005 168.375259,309.489349 155.698700,316.104126 
	C145.042908,321.664429 134.791916,328.004456 124.398186,334.061859 
	C114.713135,339.706268 105.192764,345.643494 95.392433,351.077637 
	C78.002480,360.720184 53.679741,352.752106 47.286873,329.403412 
	C43.891525,317.002502 40.545925,304.575317 37.703423,292.040833 
	C36.223061,285.512970 35.665203,278.745331 35.088112,272.051727 
	C34.492241,265.140320 33.946461,258.175812 34.131367,251.254639 
	C34.799881,226.231476 38.215408,201.653366 46.931778,178.005814 
	C53.244331,160.879807 61.291435,144.710358 71.064148,129.225143 
	C83.234917,109.940147 98.348587,93.323341 115.836533,79.124092 
	C127.418335,69.720299 140.249771,61.478149 153.505249,54.615555 
	C167.735458,47.248337 182.828445,41.212879 198.089005,36.279118 
	C209.775970,32.500694 222.227325,30.624920 234.489624,29.222824 
	C245.837036,27.925337 257.409729,27.756866 268.838501,28.212727 
	C285.305450,28.869549 301.644592,30.889608 317.664673,35.265965 
	C342.036652,41.923901 364.530853,52.424099 385.725250,66.132935 
	C401.779358,76.516968 415.825653,89.188873 428.435120,103.271881 
	C437.205994,113.067711 444.543152,124.229378 451.880249,135.208923 
	C465.192963,155.130600 473.822205,177.230972 479.465851,200.372879 
	C482.244720,211.767624 483.546417,223.567413 484.869354,235.257172 
	C485.797241,243.455826 486.407837,251.838150 485.776398,260.031830 
	C484.759705,273.225647 483.495697,286.527130 480.675537,299.419922 
	C477.802673,312.553497 474.402954,325.968353 468.564453,337.960388 
	C460.529694,354.463287 440.036316,359.796478 423.803253,350.220978 
	C408.109497,340.963562 392.268616,331.955841 376.557831,322.726990 
	C369.528137,318.597565 362.504944,314.422424 355.760284,309.852539 
	C349.275726,305.458954 344.386993,289.437592 346.461182,281.082275 
	C346.733459,279.985413 346.810760,278.840179 347.008240,277.288055 
M126.995667,123.996513 
	C126.995667,123.996513 127.022446,123.959076 127.132210,124.466759 
	C127.368614,124.716805 127.605026,124.966858 128.282043,125.748283 
	C129.358917,125.184502 130.535156,124.752403 131.492447,124.030128 
	C133.633759,122.414581 134.748825,122.962044 136.012314,125.275642 
	C140.578262,133.636490 145.376373,141.870560 150.137222,150.241089 
	C146.052750,153.553833 146.099716,157.109192 148.779678,161.340958 
	C152.743683,157.988724 156.394775,154.917511 160.026062,151.823074 
	C161.753922,150.350677 163.918167,149.105270 164.984329,147.241867 
	C165.692703,146.003845 165.238556,143.601517 164.435883,142.228210 
	C164.083618,141.625473 161.525482,142.110825 160.046890,142.445984 
	C159.211929,142.635254 158.535263,143.522919 157.736481,144.134933 
	C157.156403,143.186508 156.821960,142.427429 156.303558,141.827209 
	C153.318253,138.370743 152.744904,134.302948 155.786514,131.135345 
	C158.665741,128.136871 162.254471,130.584564 165.251709,132.174728 
	C167.537537,133.387466 169.501907,135.235611 171.830170,136.331970 
	C175.431534,138.027817 181.486267,136.073029 183.114029,132.096512 
	C183.873672,130.240738 182.235657,127.403511 181.540985,124.388710 
	C175.523102,129.508316 172.520996,124.937668 168.860260,122.108025 
	C167.466995,121.029526 166.181564,119.225662 164.661575,118.999725 
	C158.502655,118.084251 159.196030,114.324387 160.475052,110.120453 
	C160.619324,109.646286 160.811813,109.186241 160.944748,108.709274 
	C161.946106,105.116219 163.520676,101.553909 163.728912,97.914070 
	C163.868332,95.476891 162.063629,92.928490 161.128860,90.429855 
	C159.743408,91.021935 158.357941,91.614014 156.847733,92.591278 
	C156.685883,92.835724 156.458572,92.965462 155.500473,93.051704 
	C155.209015,93.539589 154.917572,94.027481 154.572342,94.658485 
	C154.572342,94.658485 154.434677,94.725006 153.763168,94.376472 
	C152.520264,95.600021 151.277359,96.823578 149.997849,98.011009 
	C149.997849,98.011009 150.036194,98.037537 149.293732,97.998100 
	C146.116806,99.272980 142.601700,100.344070 144.993164,105.006531 
	C144.993164,105.006531 145.002548,104.935646 145.153397,105.399117 
	C145.301147,105.697517 145.508011,105.946907 145.909607,106.460258 
	C145.909607,106.460258 145.973938,106.795242 146.121582,107.331688 
	C146.361603,107.610214 146.601624,107.888741 146.944366,108.510139 
	C146.944366,108.510139 146.998047,108.864006 146.997101,109.556229 
	C147.041245,110.013603 147.085373,110.470970 146.529251,110.977821 
	C146.329269,110.995384 146.129272,111.012947 145.267471,111.013351 
	C144.826447,111.013947 144.385406,111.014549 143.998337,110.997650 
	C143.998337,110.997650 143.985275,111.052849 143.999420,110.339905 
	C143.314941,109.567436 142.630463,108.794968 141.992111,107.993217 
	C141.992111,107.993217 141.992920,108.047859 141.747314,107.598663 
	C141.471298,107.403915 141.195297,107.209175 141.011902,107.025253 
	C141.011902,107.025253 141.000214,107.117775 140.619904,106.556602 
	C139.401886,107.433022 138.183884,108.309441 136.813126,109.585670 
	C136.632889,109.840149 136.386871,109.965042 135.332870,109.979034 
	C133.887253,111.346985 132.441620,112.714935 130.867783,114.531517 
	C130.688248,114.820168 130.428696,114.972198 129.330490,115.002953 
	C123.725060,117.175659 122.724709,119.606468 125.988037,123.011787 
	C125.988037,123.011787 125.990456,122.961037 126.204552,123.425720 
	C126.482956,123.611679 126.761360,123.797638 126.995667,123.996513 
M272.652924,111.001671 
	C273.138641,110.263657 273.624359,109.525650 274.042725,107.930008 
	C273.956421,106.682755 273.870087,105.435501 273.766144,103.933800 
	C270.867554,103.933800 268.347473,104.178734 265.920837,103.809502 
	C264.990784,103.667984 263.467865,102.002335 263.583313,101.237831 
	C264.923004,92.366791 266.568298,83.542549 268.035919,74.689857 
	C268.631042,71.100060 271.333435,71.911537 273.461548,72.114830 
	C275.781891,72.336487 277.099091,73.305107 276.130859,76.329826 
	C275.182983,79.291031 275.276245,82.585510 274.923767,85.636459 
	C282.644257,86.138489 283.651764,81.367905 284.040588,76.018478 
	C284.325989,72.092102 284.694489,68.171776 284.599091,63.481487 
	C272.231537,63.344421 259.864075,63.194016 247.496109,63.117542 
	C246.985031,63.114384 246.469650,63.804104 245.645630,64.840332 
	C244.113922,71.730461 242.582214,78.620598 240.980484,85.825684 
	C251.930328,86.276199 248.757889,77.386833 251.495346,73.324936 
	C254.124603,73.324936 256.396271,73.324936 259.114532,73.324936 
	C258.855286,75.076172 258.675262,76.502380 258.429413,77.917145 
	C257.283661,84.511444 255.645477,91.065315 255.123367,97.707520 
	C254.755173,102.391922 253.255753,104.209488 248.548721,104.045670 
	C242.368118,103.830559 241.866257,104.589493 242.691269,111.622887 
	C251.446686,111.764694 260.201904,111.944504 268.957825,111.997139 
	C269.979126,112.003273 271.004669,111.306648 272.004700,111.010551 
	C272.004700,111.010551 271.929504,110.988571 272.652924,111.001671 
M93.426498,296.869171 
	C99.660141,296.923492 105.902550,297.192566 112.123611,296.938660 
	C115.092484,296.817444 116.321098,297.944397 117.037766,301.288788 
	C118.776672,301.985321 120.523048,303.194550 122.251419,303.169403 
	C123.161530,303.156128 124.974007,300.811493 124.787743,299.817902 
	C123.049080,290.543060 121.263229,281.254883 118.874176,272.132080 
	C117.327393,266.225586 113.236565,262.103333 106.943893,261.023346 
	C100.042503,259.838867 96.307335,264.057007 93.432289,269.664154 
	C92.292252,268.606537 91.314667,267.414307 90.083138,266.611755 
	C86.665611,264.384613 83.018295,263.288147 79.096298,265.375244 
	C75.767517,267.146637 72.626541,269.528778 73.063286,273.608215 
	C74.034485,282.679749 75.490082,291.703186 76.943893,300.714661 
	C77.135773,301.904053 78.450912,303.792542 79.281662,303.811829 
	C80.915138,303.849701 83.070717,303.228760 84.067726,302.069611 
	C84.892792,301.110443 84.362579,298.985504 84.429420,297.455414 
	C87.378197,297.021301 90.113235,296.618683 93.426498,296.869171 
M81.422043,229.116501 
	C90.404533,235.477509 99.402870,241.816513 108.330200,248.254013 
	C108.867218,248.641266 109.038727,249.814102 109.039101,250.621552 
	C109.041489,255.822861 109.824348,256.422852 115.939766,255.424881 
	C116.651955,250.680740 116.788757,245.654953 118.289925,241.076538 
	C119.482414,237.439575 118.225990,235.785812 115.391304,235.353592 
	C113.728882,235.100128 111.784409,236.696533 109.026230,237.856339 
	C100.174049,234.049255 108.360626,227.031387 107.109940,221.292389 
	C109.713371,221.292389 111.648674,221.292389 113.842201,221.292389 
	C113.668083,225.379105 113.995575,229.010483 120.462540,228.878433 
	C121.293198,222.555923 122.332787,216.041443 122.827003,209.485825 
	C122.908028,208.411057 120.698822,206.969360 119.289268,206.133987 
	C118.993332,205.958588 117.658928,207.861984 116.623680,208.529160 
	C115.157692,209.473892 113.517731,210.860580 111.964958,210.844147 
	C101.211189,210.730408 90.461868,210.217026 79.707909,210.075714 
	C78.282181,210.056992 75.796509,211.181152 75.571800,212.175903 
	C74.100845,218.687561 72.910423,225.285934 72.161850,231.916214 
	C72.024719,233.130829 74.331383,234.621368 75.509979,235.984543 
	C76.692451,234.909988 78.028870,233.957504 79.008522,232.722153 
	C79.787445,231.739868 80.130280,230.411774 81.422043,229.116501 
M413.971710,282.784271 
	C414.187103,287.907227 414.160065,293.054779 414.677673,298.147034 
	C415.364594,304.904602 424.747925,309.448242 431.434998,308.890320 
	C436.983032,308.427460 441.281799,305.554382 443.039307,298.002563 
	C444.881897,290.085083 446.565796,282.109528 447.718842,274.073242 
	C447.915436,272.703033 445.098419,270.900421 443.673615,269.297546 
	C442.767334,270.311371 441.646454,271.207764 441.010681,272.369629 
	C440.262299,273.737244 439.934387,275.334961 439.481873,276.663544 
	C430.277863,273.357147 421.250549,270.153992 412.258423,266.854828 
	C410.122345,266.071136 408.516510,264.925781 409.885803,262.082031 
	C410.406189,261.001343 410.514496,259.036804 409.868134,258.232422 
	C408.758606,256.851562 406.989807,255.866318 405.307739,255.182175 
	C404.929169,255.028198 403.269287,256.687653 403.048798,257.697723 
	C401.552490,264.553070 400.811584,271.619415 398.770691,278.294739 
	C397.207367,283.408051 399.712158,284.699341 404.159210,286.369232 
	C404.853027,284.016663 405.205994,281.776154 406.177795,279.847473 
	C406.989441,278.236694 408.525726,276.991028 409.741119,275.583649 
	C411.520538,277.462280 416.281647,277.356384 413.971710,282.784271 
M403.952301,240.486008 
	C412.051697,249.101395 422.142303,249.568222 432.889099,247.698410 
	C438.847595,246.661697 443.416595,243.538864 446.083344,238.327835 
	C450.408630,229.875900 447.266174,216.651581 439.606903,211.282440 
	C431.360504,205.501740 422.082672,203.021576 412.203949,206.097107 
	C404.615509,208.459625 397.018860,214.363602 397.814362,224.719498 
	C398.260468,230.527039 400.174622,235.389160 403.952301,240.486008 
M334.948853,111.316559 
	C336.155487,109.205566 337.285126,107.045914 338.582916,104.992508 
	C342.876648,98.198708 343.204010,89.041786 339.271545,83.788315 
	C334.380280,77.253998 323.279999,73.216621 315.964844,75.518005 
	C304.362122,79.168297 297.319946,87.438255 294.301422,98.836189 
	C293.312073,102.571808 293.444885,107.536110 295.146027,110.879448 
	C300.411377,121.227844 314.592499,127.655548 327.114746,118.365936 
	C329.744781,116.414833 332.105957,114.101288 334.948853,111.316559 
M424.263763,176.859802 
	C423.173309,177.890701 422.248199,179.276459 420.957611,179.877731 
	C418.370850,181.082855 415.584320,181.859085 412.864319,182.818008 
	C415.445282,189.459259 416.240021,189.831573 421.591858,187.823074 
	C425.089874,186.510254 428.584106,185.144302 432.171814,184.125320 
	C435.776703,183.101440 436.628754,181.473724 434.652649,178.117737 
	C429.318787,169.059296 424.140350,159.909058 418.933228,150.776443 
	C417.265747,147.851974 415.109253,146.554352 411.739899,148.019775 
	C408.607086,149.382339 405.420715,150.626053 402.232269,151.855576 
	C395.613922,154.407684 395.340942,156.150131 400.867645,160.915604 
	C411.897186,155.417404 413.536346,155.546234 416.612366,163.274200 
	C406.415588,166.798630 396.244019,170.314362 386.201691,173.785431 
	C380.421875,163.475723 380.316071,163.430130 374.017395,168.148956 
	C378.072449,175.302780 382.247864,182.408615 386.164368,189.654434 
	C389.795807,196.372894 390.551025,196.561295 395.883972,191.041351 
	C394.199463,188.221573 392.522766,185.414886 390.662750,182.301346 
	C399.825134,178.952957 408.257538,176.073181 416.518951,172.766174 
	C420.590973,171.136185 422.749969,172.280746 424.263763,176.859802 
M126.116058,192.997604 
	C136.026215,192.052734 143.521713,173.518646 141.861099,165.472260 
	C141.585434,164.136536 139.595291,162.699066 138.114868,162.258850 
	C137.369186,162.037109 135.411667,163.747253 135.004517,164.929153 
	C133.740570,168.598190 133.153030,172.497025 131.941833,176.188171 
	C129.970810,182.194885 126.017273,184.860886 121.089714,183.894852 
	C111.654594,182.045120 103.979218,172.549637 104.060005,162.826767 
	C104.116089,156.076019 108.066505,153.208252 114.556458,155.292480 
	C115.770065,155.682236 116.867081,156.435089 118.044273,157.033798 
	C119.179321,155.682602 120.694016,154.595840 121.119591,153.181381 
	C121.592087,151.610962 121.766914,149.078934 120.856247,148.122345 
	C117.695953,144.802673 114.012245,141.980515 110.520050,138.977921 
	C108.464256,137.210342 106.183617,137.692734 106.088280,140.128738 
	C105.846626,146.303101 101.361809,149.524872 98.227470,153.874954 
	C96.179932,156.716705 95.241768,160.858566 95.082443,164.474289 
	C94.349136,181.116623 108.144196,193.955948 126.116058,192.997604 
z"/>
<path fill="#000000" opacity="1.000000" stroke="none" 
	d="
M92.848274,296.216064 
	C90.113235,296.618683 87.378197,297.021301 84.429420,297.455414 
	C84.362579,298.985504 84.892792,301.110443 84.067726,302.069611 
	C83.070717,303.228760 80.915138,303.849701 79.281662,303.811829 
	C78.450912,303.792542 77.135773,301.904053 76.943893,300.714661 
	C75.490082,291.703186 74.034485,282.679749 73.063286,273.608215 
	C72.626541,269.528778 75.767517,267.146637 79.096298,265.375244 
	C83.018295,263.288147 86.665611,264.384613 90.083138,266.611755 
	C91.314667,267.414307 92.292252,268.606537 93.432289,269.664154 
	C96.307335,264.057007 100.042503,259.838867 106.943893,261.023346 
	C113.236565,262.103333 117.327393,266.225586 118.874176,272.132080 
	C121.263229,281.254883 123.049080,290.543060 124.787743,299.817902 
	C124.974007,300.811493 123.161530,303.156128 122.251419,303.169403 
	C120.523048,303.194550 118.776672,301.985321 116.944931,300.514343 
	C116.852104,298.601379 116.852104,297.462860 116.852104,296.216064 
	C108.838554,296.216064 100.843414,296.216064 92.848274,296.216064 
M101.002365,282.506897 
	C100.627869,286.036530 102.323341,287.031555 105.699585,287.040710 
	C114.913559,287.065674 114.983536,287.094513 112.039635,278.109619 
	C111.887573,277.645508 111.954636,277.109528 111.801872,276.645813 
	C110.522041,272.760773 106.559837,270.110107 103.493851,271.175903 
	C98.975906,272.746399 99.738968,276.298248 100.424362,279.767303 
	C100.549797,280.402191 100.797600,281.012848 101.002365,282.506897 
M80.998451,279.487244 
	C81.328911,281.237579 81.071602,283.675659 82.127060,284.577698 
	C83.725754,285.944061 86.193954,286.594055 88.377632,286.865570 
	C89.754570,287.036774 91.999680,286.395020 92.620796,285.369934 
	C94.882675,281.636902 90.176247,274.195160 85.716240,274.074371 
	C82.637810,273.990936 80.571312,275.031586 80.998451,279.487244 
z"/>
<path fill="#000000" opacity="1.000000" stroke="none" 
	d="
M136.075073,109.960358 
	C136.386871,109.965042 136.632889,109.840149 137.228790,109.340149 
	C138.763046,108.435677 139.881638,107.776726 141.000214,107.117775 
	C141.000214,107.117775 141.011902,107.025253 141.049026,107.277176 
	C141.388412,107.702026 141.690659,107.874947 141.992920,108.047859 
	C141.992920,108.047859 141.992111,107.993217 141.982941,108.340797 
	C142.644257,109.476532 143.314774,110.264694 143.985275,111.052849 
	C143.985275,111.052849 143.998337,110.997650 143.979721,111.361557 
	C142.965927,113.175636 141.970764,114.625793 140.986145,116.060562 
	C143.146042,119.424187 145.216125,122.647964 147.286224,125.871750 
	C147.735046,125.834167 148.183884,125.796585 148.632706,125.759003 
	C149.361176,121.517441 150.089645,117.275879 150.875732,112.794403 
	C150.933365,112.554497 150.849075,112.068275 150.999420,111.724777 
	C151.935837,106.963257 148.337799,109.775925 146.998047,108.864006 
	C146.998047,108.864006 146.944366,108.510139 146.952774,108.022758 
	C146.632095,107.288666 146.303024,107.041954 145.973938,106.795242 
	C145.973938,106.795242 145.909607,106.460258 145.880188,106.024605 
	C145.568024,105.371178 145.285278,105.153412 145.002548,104.935646 
	C145.002548,104.935646 144.993164,105.006531 145.009659,104.661194 
	C146.696167,102.223076 148.366180,100.130302 150.036194,98.037537 
	C150.036194,98.037537 149.997849,98.011009 150.357010,98.041969 
	C151.955673,96.956955 153.195175,95.840981 154.434677,94.725006 
	C154.434677,94.725006 154.572342,94.658485 154.849091,94.462082 
	C155.472473,93.837288 155.819138,93.408890 156.165787,92.980492 
	C156.458572,92.965462 156.685883,92.835724 157.254898,92.331306 
	C162.250992,90.235428 160.877197,95.137459 161.693192,95.646217 
	C160.110016,104.137016 158.643707,112.001083 157.332764,119.031845 
	C161.605652,120.404617 165.295273,121.590012 168.984894,122.775406 
	C172.520996,124.937668 175.523102,129.508316 181.540985,124.388710 
	C182.235657,127.403511 183.873672,130.240738 183.114029,132.096512 
	C181.486267,136.073029 175.431534,138.027817 171.830170,136.331970 
	C169.501907,135.235611 167.537537,133.387466 165.251709,132.174728 
	C162.254471,130.584564 158.665741,128.136871 155.786514,131.135345 
	C152.744904,134.302948 153.318253,138.370743 156.303558,141.827209 
	C156.821960,142.427429 157.156403,143.186508 157.736481,144.134933 
	C158.535263,143.522919 159.211929,142.635254 160.046890,142.445984 
	C161.525482,142.110825 164.083618,141.625473 164.435883,142.228210 
	C165.238556,143.601517 165.692703,146.003845 164.984329,147.241867 
	C163.918167,149.105270 161.753922,150.350677 160.026062,151.823074 
	C156.394775,154.917511 152.743683,157.988724 148.779678,161.340958 
	C146.099716,157.109192 146.052750,153.553833 150.137222,150.241089 
	C145.376373,141.870560 140.578262,133.636490 136.012314,125.275642 
	C134.748825,122.962044 133.633759,122.414581 131.492447,124.030128 
	C130.535156,124.752403 129.358917,125.184502 128.119232,125.179199 
	C127.645096,124.393105 127.333771,124.176086 127.022446,123.959076 
	C127.022446,123.959076 126.995667,123.996513 126.943161,123.733185 
	C126.590591,123.300247 126.290520,123.130646 125.990456,122.961037 
	C125.990456,122.961037 125.988037,123.011787 125.977356,122.626472 
	C127.340820,119.823311 128.714966,117.405464 130.089111,114.987610 
	C130.428696,114.972198 130.688248,114.820168 131.278412,114.267380 
	C133.151062,112.655609 134.613068,111.307991 136.075073,109.960358 
z"/>
<path fill="#000000" opacity="1.000000" stroke="none" 
	d="
M81.044388,229.176865 
	C80.130280,230.411774 79.787445,231.739868 79.008522,232.722153 
	C78.028870,233.957504 76.692451,234.909988 75.509987,235.984543 
	C74.331383,234.621368 72.024719,233.130829 72.161850,231.916214 
	C72.910423,225.285934 74.100845,218.687561 75.571800,212.175903 
	C75.796509,211.181152 78.282181,210.056992 79.707909,210.075714 
	C90.461868,210.217026 101.211189,210.730408 111.964958,210.844147 
	C113.517731,210.860580 115.157692,209.473892 116.623680,208.529160 
	C117.658928,207.861984 118.993332,205.958588 119.289268,206.133987 
	C120.698822,206.969360 122.908028,208.411057 122.827003,209.485825 
	C122.332787,216.041443 121.293198,222.555923 120.462540,228.878433 
	C113.995575,229.010483 113.668083,225.379105 113.842201,221.292389 
	C111.648674,221.292389 109.713371,221.292389 107.109940,221.292389 
	C108.360626,227.031387 100.174049,234.049255 109.026230,237.856339 
	C111.784409,236.696533 113.728882,235.100128 115.391304,235.353592 
	C118.225990,235.785812 119.482414,237.439575 118.289925,241.076538 
	C116.788757,245.654953 116.651955,250.680740 115.939766,255.424881 
	C109.824348,256.422852 109.041489,255.822861 109.039101,250.621552 
	C109.038727,249.814102 108.867218,248.641266 108.330200,248.254013 
	C99.402870,241.816513 90.404533,235.477509 81.044388,229.176865 
M99.010994,224.621124 
	C98.854576,222.914413 98.855026,219.755432 98.518181,219.719040 
	C93.551491,219.182556 88.539978,219.061111 83.539108,218.841171 
	C83.403587,219.239273 83.268074,219.637360 83.132553,220.035461 
	C87.887276,223.337021 92.641991,226.638565 97.736618,230.176147 
	C98.256004,228.195709 98.623764,226.793442 99.010994,224.621124 
z"/>
<path fill="#000000" opacity="1.000000" stroke="none" 
	d="
M413.975555,282.367920 
	C416.281647,277.356384 411.520538,277.462280 409.741119,275.583649 
	C408.525726,276.991028 406.989441,278.236694 406.177795,279.847473 
	C405.205994,281.776154 404.853027,284.016663 404.159210,286.369232 
	C399.712158,284.699341 397.207367,283.408051 398.770691,278.294739 
	C400.811584,271.619415 401.552490,264.553070 403.048798,257.697723 
	C403.269287,256.687653 404.929169,255.028198 405.307739,255.182175 
	C406.989807,255.866318 408.758606,256.851562 409.868134,258.232422 
	C410.514496,259.036804 410.406189,261.001343 409.885803,262.082031 
	C408.516510,264.925781 410.122345,266.071136 412.258423,266.854828 
	C421.250549,270.153992 430.277863,273.357147 439.481873,276.663544 
	C439.934387,275.334961 440.262299,273.737244 441.010681,272.369629 
	C441.646454,271.207764 442.767334,270.311371 443.673645,269.297546 
	C445.098419,270.900421 447.915436,272.703033 447.718842,274.073242 
	C446.565796,282.109528 444.881897,290.085083 443.039307,298.002563 
	C441.281799,305.554382 436.983032,308.427460 431.434998,308.890320 
	C424.747925,309.448242 415.364594,304.904602 414.677673,298.147034 
	C414.160065,293.054779 414.187103,287.907227 413.975555,282.367920 
M435.672394,295.778534 
	C436.095520,294.035767 436.784607,292.304413 436.859802,290.546753 
	C436.922974,289.071014 436.722534,286.654907 435.858643,286.225861 
	C431.612732,284.116974 427.106537,282.532257 422.592651,280.722534 
	C421.301544,287.019562 419.043915,293.051453 424.955444,297.171051 
	C428.025452,299.310425 431.995758,299.944153 435.672394,295.778534 
z"/>
<path fill="#000000" opacity="1.000000" stroke="none" 
	d="
M403.689148,240.223633 
	C400.174622,235.389160 398.260468,230.527039 397.814362,224.719498 
	C397.018860,214.363602 404.615509,208.459625 412.203949,206.097107 
	C422.082672,203.021576 431.360504,205.501740 439.606903,211.282440 
	C447.266174,216.651581 450.408630,229.875900 446.083344,238.327835 
	C443.416595,243.538864 438.847595,246.661697 432.889099,247.698410 
	C422.142303,249.568222 412.051697,249.101395 403.689148,240.223633 
M429.495331,237.996582 
	C433.498322,237.517380 437.308624,236.720688 438.990326,232.339127 
	C440.953735,227.223602 437.623383,219.309860 432.233307,218.149582 
	C426.192841,216.849319 419.908264,216.176758 413.729950,216.177124 
	C408.428101,216.177429 405.093689,222.158905 406.734192,227.335037 
	C409.522369,236.132339 419.366608,240.949005 429.495331,237.996582 
z"/>
<path fill="#000000" opacity="1.000000" stroke="none" 
	d="
M334.769928,111.635658 
	C332.105957,114.101288 329.744781,116.414833 327.114746,118.365936 
	C314.592499,127.655548 300.411377,121.227844 295.146027,110.879448 
	C293.444885,107.536110 293.312073,102.571808 294.301422,98.836189 
	C297.319946,87.438255 304.362122,79.168297 315.964844,75.518005 
	C323.279999,73.216621 334.380280,77.253998 339.271545,83.788315 
	C343.204010,89.041786 342.876648,98.198708 338.582916,104.992508 
	C337.285126,107.045914 336.155487,109.205566 334.769928,111.635658 
M313.605652,113.007431 
	C323.640717,113.269012 328.154053,106.499687 330.987488,98.501755 
	C334.084900,89.758667 331.271210,85.117943 322.101807,84.005562 
	C311.846558,82.761459 304.133179,94.597122 304.033234,102.021919 
	C303.912292,111.008217 304.133881,111.201942 313.605652,113.007431 
z"/>
<path fill="#000000" opacity="1.000000" stroke="none" 
	d="
M424.122711,176.515625 
	C422.749969,172.280746 420.590973,171.136185 416.518951,172.766174 
	C408.257538,176.073181 399.825134,178.952957 390.662750,182.301346 
	C392.522766,185.414886 394.199463,188.221573 395.883972,191.041351 
	C390.551025,196.561295 389.795807,196.372894 386.164368,189.654434 
	C382.247864,182.408615 378.072449,175.302780 374.017395,168.148956 
	C380.316071,163.430130 380.421875,163.475723 386.201691,173.785431 
	C396.244019,170.314362 406.415588,166.798630 416.612366,163.274200 
	C413.536346,155.546234 411.897186,155.417404 400.867645,160.915604 
	C395.340942,156.150131 395.613922,154.407684 402.232269,151.855576 
	C405.420715,150.626053 408.607086,149.382339 411.739899,148.019775 
	C415.109253,146.554352 417.265747,147.851974 418.933228,150.776443 
	C424.140350,159.909058 429.318787,169.059296 434.652649,178.117737 
	C436.628754,181.473724 435.776703,183.101440 432.171814,184.125320 
	C428.584106,185.144302 425.089874,186.510254 421.591858,187.823074 
	C416.240021,189.831573 415.445282,189.459259 412.864319,182.818008 
	C415.584320,181.859085 418.370850,181.082855 420.957611,179.877731 
	C422.248199,179.276459 423.173309,177.890701 424.122711,176.515625 
z"/>
<path fill="#000000" opacity="1.000000" stroke="none" 
	d="
M285.025940,64.248756 
	C284.694489,68.171776 284.325989,72.092102 284.040588,76.018478 
	C283.651764,81.367905 282.644257,86.138489 274.923767,85.636459 
	C275.276245,82.585510 275.182983,79.291031 276.130859,76.329826 
	C277.099091,73.305107 275.781891,72.336487 273.461548,72.114830 
	C271.333435,71.911537 268.631042,71.100060 268.035919,74.689857 
	C266.568298,83.542549 264.923004,92.366791 263.583313,101.237831 
	C263.467865,102.002335 264.990784,103.667984 265.920837,103.809502 
	C268.347473,104.178734 270.867554,103.933800 273.766144,103.933800 
	C273.870087,105.435501 273.956421,106.682755 273.777008,108.483200 
	C272.984009,109.687111 272.456757,110.337837 271.929504,110.988571 
	C271.929504,110.988571 272.004700,111.010551 271.545959,111.005707 
	C261.435608,111.010025 251.784042,111.019188 242.132477,111.028351 
	C241.866257,104.589493 242.368118,103.830559 248.548721,104.045670 
	C253.255753,104.209488 254.755173,102.391922 255.123367,97.707520 
	C255.645477,91.065315 257.283661,84.511444 258.429413,77.917145 
	C258.675262,76.502380 258.855286,75.076172 259.114532,73.324936 
	C256.396271,73.324936 254.124603,73.324936 251.495346,73.324936 
	C248.757889,77.386833 251.930328,86.276199 240.980484,85.825684 
	C242.582214,78.620598 244.113922,71.730461 246.268066,64.419243 
	C259.602325,64.081688 272.314148,64.165222 285.025940,64.248756 
z"/>
<path fill="#000000" opacity="1.000000" stroke="none" 
	d="
M125.699295,193.004639 
	C108.144196,193.955948 94.349136,181.116623 95.082443,164.474289 
	C95.241768,160.858566 96.179932,156.716705 98.227470,153.874954 
	C101.361809,149.524872 105.846626,146.303101 106.088280,140.128738 
	C106.183617,137.692734 108.464256,137.210342 110.520050,138.977921 
	C114.012245,141.980515 117.695953,144.802673 120.856247,148.122345 
	C121.766914,149.078934 121.592087,151.610962 121.119591,153.181381 
	C120.694016,154.595840 119.179321,155.682602 118.044273,157.033798 
	C116.867081,156.435089 115.770065,155.682236 114.556458,155.292480 
	C108.066505,153.208252 104.116089,156.076019 104.060005,162.826767 
	C103.979218,172.549637 111.654594,182.045120 121.089714,183.894852 
	C126.017273,184.860886 129.970810,182.194885 131.941833,176.188171 
	C133.153030,172.497025 133.740570,168.598190 135.004517,164.929153 
	C135.411667,163.747253 137.369186,162.037109 138.114868,162.258850 
	C139.595291,162.699066 141.585434,164.136536 141.861099,165.472260 
	C143.521713,173.518646 136.026215,192.052734 125.699295,193.004639 
z"/>
<path fill="#DF642F" opacity="1.000000" stroke="none" 
	d="
M168.922577,122.441711 
	C165.295273,121.590012 161.605652,120.404617 157.332764,119.031845 
	C158.643707,112.001083 160.110016,104.137016 161.693192,95.646217 
	C160.877197,95.137459 162.250992,90.235428 157.317276,92.138718 
	C158.357941,91.614014 159.743408,91.021935 161.128860,90.429855 
	C162.063629,92.928490 163.868332,95.476891 163.728912,97.914070 
	C163.520676,101.553909 161.946106,105.116219 160.944748,108.709274 
	C160.811813,109.186241 160.619324,109.646286 160.475052,110.120453 
	C159.196030,114.324387 158.502655,118.084251 164.661575,118.999725 
	C166.181564,119.225662 167.466995,121.029526 168.922577,122.441711 
z"/>
<path fill="#DF642F" opacity="1.000000" stroke="none" 
	d="
M150.818115,113.034317 
	C150.089645,117.275879 149.361176,121.517441 148.632706,125.759003 
	C148.183884,125.796585 147.735046,125.834167 147.286224,125.871750 
	C145.216125,122.647964 143.146042,119.424187 140.986145,116.060562 
	C141.970764,114.625793 142.965927,113.175636 143.952744,111.370316 
	C144.385406,111.014549 144.826447,111.013947 145.548767,111.377884 
	C144.264359,115.237267 142.966629,118.681862 146.735703,120.883141 
	C148.179001,118.108223 149.498550,115.571274 150.818115,113.034317 
z"/>
<path fill="#F5AD8D" opacity="1.000000" stroke="none" 
	d="
M284.812531,63.865120 
	C272.314148,64.165222 259.602325,64.081688 246.423386,64.084587 
	C246.469650,63.804104 246.985031,63.114384 247.496109,63.117542 
	C259.864075,63.194016 272.231537,63.344421 284.812531,63.865120 
z"/>
<path fill="#F35005" opacity="1.000000" stroke="none" 
	d="
M150.875732,112.794403 
	C149.498550,115.571274 148.179001,118.108223 146.735703,120.883141 
	C142.966629,118.681862 144.264359,115.237267 145.879669,111.386467 
	C146.129272,111.012947 146.329269,110.995384 147.155243,110.962341 
	C148.803833,111.320671 149.826462,111.694473 150.849075,112.068275 
	C150.849075,112.068275 150.933365,112.554497 150.875732,112.794403 
z"/>
<path fill="#FEA274" opacity="1.000000" stroke="none" 
	d="
M242.411865,111.325623 
	C251.784042,111.019188 261.435608,111.010025 271.557709,110.968338 
	C271.004669,111.306648 269.979126,112.003273 268.957825,111.997139 
	C260.201904,111.944504 251.446686,111.764694 242.411865,111.325623 
z"/>
<path fill="#FECDB3" opacity="1.000000" stroke="none" 
	d="
M93.137390,296.542603 
	C100.843414,296.216064 108.838554,296.216064 116.852104,296.216064 
	C116.852104,297.462860 116.852104,298.601379 116.816360,300.149994 
	C116.321098,297.944397 115.092484,296.817444 112.123611,296.938660 
	C105.902550,297.192566 99.660141,296.923492 93.137390,296.542603 
z"/>
<path fill="#DF642F" opacity="1.000000" stroke="none" 
	d="
M129.709808,114.995285 
	C128.714966,117.405464 127.340820,119.823311 126.002396,122.622192 
	C122.724709,119.606468 123.725060,117.175659 129.709808,114.995285 
z"/>
<path fill="#DF642F" opacity="1.000000" stroke="none" 
	d="
M149.664963,98.017822 
	C148.366180,100.130302 146.696167,102.223076 145.045013,104.666519 
	C142.601700,100.344070 146.116806,99.272980 149.664963,98.017822 
z"/>
<path fill="#DF642F" opacity="1.000000" stroke="none" 
	d="
M135.703979,109.969696 
	C134.613068,111.307991 133.151062,112.655609 131.342514,114.043060 
	C132.441620,112.714935 133.887253,111.346985 135.703979,109.969696 
z"/>
<path fill="#DF642F" opacity="1.000000" stroke="none" 
	d="
M150.999420,111.724777 
	C149.826462,111.694473 148.803833,111.320671 147.455368,110.937607 
	C147.085373,110.470970 147.041245,110.013603 146.997574,109.210114 
	C148.337799,109.775925 151.935837,106.963257 150.999420,111.724777 
z"/>
<path fill="#DF642F" opacity="1.000000" stroke="none" 
	d="
M154.098923,94.550735 
	C153.195175,95.840981 151.955673,96.956955 150.375305,98.060028 
	C151.277359,96.823578 152.520264,95.600021 154.098923,94.550735 
z"/>
<path fill="#DF642F" opacity="1.000000" stroke="none" 
	d="
M140.810059,106.837189 
	C139.881638,107.776726 138.763046,108.435677 137.305176,109.140244 
	C138.183884,108.309441 139.401886,107.433022 140.810059,106.837189 
z"/>
<path fill="#DF642F" opacity="1.000000" stroke="none" 
	d="
M143.992340,110.696381 
	C143.314774,110.264694 142.644257,109.476532 141.959869,108.355438 
	C142.630463,108.794968 143.314941,109.567436 143.992340,110.696381 
z"/>
<path fill="#FEA274" opacity="1.000000" stroke="none" 
	d="
M272.291199,110.995117 
	C272.456757,110.337837 272.984009,109.687111 273.810669,108.912018 
	C273.624359,109.525650 273.138641,110.263657 272.291199,110.995117 
z"/>
<path fill="#DF642F" opacity="1.000000" stroke="none" 
	d="
M155.833130,93.016098 
	C155.819138,93.408890 155.472473,93.837288 154.875977,94.390526 
	C154.917572,94.027481 155.209015,93.539589 155.833130,93.016098 
z"/>
<path fill="#DF642F" opacity="1.000000" stroke="none" 
	d="
M146.047760,107.063461 
	C146.303024,107.041954 146.632095,107.288666 146.901413,107.851326 
	C146.601624,107.888741 146.361603,107.610214 146.047760,107.063461 
z"/>
<path fill="#DF642F" opacity="1.000000" stroke="none" 
	d="
M145.077972,105.167381 
	C145.285278,105.153412 145.568024,105.371178 145.812363,105.868118 
	C145.508011,105.946907 145.301147,105.697517 145.077972,105.167381 
z"/>
<path fill="#DF642F" opacity="1.000000" stroke="none" 
	d="
M141.870117,107.823257 
	C141.690659,107.874947 141.388412,107.702026 141.002716,107.271774 
	C141.195297,107.209175 141.471298,107.403915 141.870117,107.823257 
z"/>
<path fill="#DF642F" opacity="1.000000" stroke="none" 
	d="
M127.077332,124.212921 
	C127.333771,124.176086 127.645096,124.393105 127.898926,124.913513 
	C127.605026,124.966858 127.368614,124.716805 127.077332,124.212921 
z"/>
<path fill="#DF642F" opacity="1.000000" stroke="none" 
	d="
M126.097504,123.193375 
	C126.290520,123.130646 126.590591,123.300247 126.965210,123.726723 
	C126.761360,123.797638 126.482956,123.611679 126.097504,123.193375 
z"/>
<path fill="#E95714" opacity="1.000000" stroke="none" 
	d="
M100.995644,282.070801 
	C100.797600,281.012848 100.549797,280.402191 100.424362,279.767303 
	C99.738968,276.298248 98.975906,272.746399 103.493851,271.175903 
	C106.559837,270.110107 110.522041,272.760773 111.801872,276.645813 
	C111.954636,277.109528 111.887573,277.645508 112.039635,278.109619 
	C114.983536,287.094513 114.913559,287.065674 105.699585,287.040710 
	C102.323341,287.031555 100.627869,286.036530 100.995644,282.070801 
z"/>
<path fill="#E85612" opacity="1.000000" stroke="none" 
	d="
M80.995804,279.053711 
	C80.571312,275.031586 82.637810,273.990936 85.716240,274.074371 
	C90.176247,274.195160 94.882675,281.636902 92.620796,285.369934 
	C91.999680,286.395020 89.754570,287.036774 88.377632,286.865570 
	C86.193954,286.594055 83.725754,285.944061 82.127060,284.577698 
	C81.071602,283.675659 81.328911,281.237579 80.995804,279.053711 
z"/>
<path fill="#E25C1E" opacity="1.000000" stroke="none" 
	d="
M99.001259,225.006149 
	C98.623764,226.793442 98.256004,228.195709 97.736618,230.176147 
	C92.641991,226.638565 87.887276,223.337021 83.132553,220.035461 
	C83.268074,219.637360 83.403587,219.239273 83.539108,218.841171 
	C88.539978,219.061111 93.551491,219.182556 98.518181,219.719040 
	C98.855026,219.755432 98.854576,222.914413 99.001259,225.006149 
z"/>
<path fill="#E95713" opacity="1.000000" stroke="none" 
	d="
M435.381958,296.053284 
	C431.995758,299.944153 428.025452,299.310425 424.955444,297.171051 
	C419.043915,293.051453 421.301544,287.019562 422.592651,280.722534 
	C427.106537,282.532257 431.612732,284.116974 435.858643,286.225861 
	C436.722534,286.654907 436.922974,289.071014 436.859802,290.546753 
	C436.784607,292.304413 436.095520,294.035767 435.381958,296.053284 
z"/>
<path fill="#F0540D" opacity="1.000000" stroke="none" 
	d="
M429.073792,238.027924 
	C419.366608,240.949005 409.522369,236.132339 406.734192,227.335037 
	C405.093689,222.158905 408.428101,216.177429 413.729950,216.177124 
	C419.908264,216.176758 426.192841,216.849319 432.233307,218.149582 
	C437.623383,219.309860 440.953735,227.223602 438.990326,232.339127 
	C437.308624,236.720688 433.498322,237.517380 429.073792,238.027924 
z"/>
<path fill="#F0560F" opacity="1.000000" stroke="none" 
	d="
M313.175476,113.001297 
	C304.133881,111.201942 303.912292,111.008217 304.033234,102.021919 
	C304.133179,94.597122 311.846558,82.761459 322.101807,84.005562 
	C331.271210,85.117943 334.084900,89.758667 330.987488,98.501755 
	C328.154053,106.499687 323.640717,113.269012 313.175476,113.001297 
z"/>
</svg>